HIERARCHY
ROOT HipCenter
{
    OFFSET 0.0 0.0 -0.0
    CHANNELS 6 Xposition Yposition Zposition Zrotation Xrotation Yrotation
    JOINT Spine
    {
        OFFSET 0.0 11.546579360961914 0.0
        CHANNELS 3 Zrotation Xrotation Yrotation
        JOINT ShoulderCenter
        {
            OFFSET 0.0 32.94481658935547 0.0
            CHANNELS 3 Zrotation Xrotation Yrotation
            JOINT LeftShoulder
            {
                OFFSET 18.95941162109375 0.0 0.0
                CHANNELS 3 Zrotation Xrotation Yrotation
                JOINT LeftElbow
                {
                    OFFSET 28.856807708740234 0.0 0.0
                    CHANNELS 3 Zrotation Xrotation Yrotation
                    JOINT LeftWrist
                    {
                        OFFSET 29.326324462890625 0.0 0.0
                        CHANNELS 3 Zrotation Xrotation Yrotation
                        JOINT LeftHand
                        {
                            OFFSET 3.774109363555908 0.0 0.0
                            CHANNELS 3 Zrotation Xrotation Yrotation
                            End Site
                            {
                                OFFSET 1.5096436738967896 0.0 0.0
                            }
                        }
                    }
                }
            }
            JOINT RightShoulder
            {
                OFFSET -18.95941162109375 0.0 0.0
                CHANNELS 3 Zrotation Xrotation Yrotation
                JOINT RightElbow
                {
                    OFFSET -28.856807708740234 0.0 0.0
                    CHANNELS 3 Zrotation Xrotation Yrotation
                    JOINT RightWrist
                    {
                        OFFSET -29.326324462890625 0.0 0.0
                        CHANNELS 3 Zrotation Xrotation Yrotation
                        JOINT RightHand
                        {
                            OFFSET -3.774109363555908 0.0 0.0
                            CHANNELS 3 Zrotation Xrotation Yrotation
                            End Site
                            {
                                OFFSET -1.5096436738967896 0.0 0.0
                            }
                        }
                    }
                }
            }
            End Site
            {
                OFFSET 0.0 13.177925109863281 0.0
            }
        }
    }
    JOINT LeftHip
    {
        OFFSET 13.482994079589844 0.0 0.0
        CHANNELS 3 Zrotation Xrotation Yrotation
        JOINT LeftKnee
        {
            OFFSET 0.0 -41.18231964111328 0.0
            CHANNELS 3 Zrotation Xrotation Yrotation
            JOINT LeftAnkle
            {
                OFFSET 0.0 -42.33604431152344 0.0
                CHANNELS 3 Zrotation Xrotation Yrotation
                JOINT LeftFoot
                {
                    OFFSET 0.0 -13.48965835571289 0.0
                    CHANNELS 3 Zrotation Xrotation Yrotation
                    End Site
                    {
                        OFFSET 0.0 0.0 5.3958635330200195
                    }
                }
            }
        }
    }
    JOINT RightHip
    {
        OFFSET -13.482994079589844 0.0 0.0
        CHANNELS 3 Zrotation Xrotation Yrotation
        JOINT RightKnee
        {
            OFFSET 0.0 -41.18231964111328 0.0
            CHANNELS 3 Zrotation Xrotation Yrotation
            JOINT RightAnkle
            {
                OFFSET 0.0 -42.33604431152344 0.0
                CHANNELS 3 Zrotation Xrotation Yrotation
                JOINT RightFoot
                {
                    OFFSET 0.0 -13.48965835571289 0.0
                    CHANNELS 3 Zrotation Xrotation Yrotation
                    End Site
                    {
                        OFFSET 0.0 0.0 5.3958635330200195
                    }
                }
            }
        }
    }
}
MOTION
Frames: 5
Frame Time: 0.03333333333333333
141.3000030517578 0.10000000149011612 54.900001525878906 4.014191139643121 5.9943570011354845 -95.68480209575971 0.39030232724935193 3.8869722846375083 0.06760725042880958 2.1615214236554893e-07 1.8566697066267738e-07 -0.04811684428892841 101.72843524507716 17.506936025564528 -177.45419459857067 6.8184134069043774e-06 -1.9082404924583187e-06 48.124443045307274 -4.075578591794553e-06 -30.62661064415467 13.7694173691478 3.1308585145656493e-15 0.0 0.0 -103.11772174186515 12.454974940671637 168.41926886526866 -5.3855597003766235e-06 -2.577275168771184e-06 -76.6604321261201 179.99999798912955 -74.44306864604245 148.75934702663275 7.951386703658792e-16 1.987846675914698e-16 2.360567927648704e-15 18.9631685656777 -22.47498885928702 -10.679627119798381 -4.46122267096146 23.14570781609475 -41.68774013090827 83.21154064145378 -37.577862122512975 153.29467841822492 6.3611093629270335e-15 -8.827812596100317e-32 -1.5902773407317584e-15 9.413548698663478 1.8554108079558336 34.649305630362825 14.35352064839949 34.7433748743374 14.395308895243506 -92.17168067925782 -51.788131538143524 -117.08641805094905 2.2069531490250793e-32 -1.5902773407317582e-15 1.5902773407317582e-15
138.8000030517578 0.4000000059604645 56.0 5.013113899198796 6.974757391949847 -97.97809846398289 1.3887243093226085 3.949605119608467 0.13889474802770588 5.505697258464437e-07 -1.5448690964023265e-07 -0.20178081832123956 102.43543206966885 14.037468044223703 -174.3293477606739 5.194465537539806e-07 2.0727080318895698e-06 49.431900813192485 -3.92142438694844e-06 -23.683916458789014 12.587837523198058 0.0 0.0 3.1805546814635168e-15 -103.85038877796129 14.316754346332882 166.0312467318524 -3.1356412929611088e-06 -3.707908125674743e-07 -78.64081489645011 -179.99999872144556 -75.89184329557378 149.88740000487252 5.466578358765419e-16 -1.6027013824562253e-15 -8.68129915497122e-16 20.546175391459506 -21.130144074095664 -17.037125124241808 -10.46812735845569 20.598398950639755 -30.500152348639283 80.52794043644202 -36.30408826502218 148.49375581341 -4.4139062980501586e-32 3.1805546814635168e-15 1.5902773407317584e-15 10.408115238522555 -3.3281238079009237 32.460381998718326 17.953371846112677 43.170763675401425 16.695158022274352 -81.55679757834096 -49.204547848545076 -101.27547023985606 3.1805546814635168e-15 2.2069531490250793e-31 7.951386703658792e-15
136.1999969482422 0.800000011920929 57.5 4.96974074859561 5.9348998788782446 -98.26266833367555 0.7064220344397409 4.944798454906626 0.24393545600711972 -1.2429185234192647e-06 1.5819962084680821e-06 -2.3217050406990123 102.94027363895944 10.091229312925458 -169.8674745478485 3.1691490127469e-06 -3.1829871900278112e-06 51.04722882769846 3.3525386801783163e-06 -17.90564006760893 14.108798019578586 1.5902773407317584e-15 -6.3611093629270335e-15 1.5902773407317584e-15 -104.72359436002704 15.59850072700922 163.09730714382403 1.6957334602026708e-06 1.8860398664796701e-06 -81.83798485966207 -179.99999862556044 -74.7294987430144 148.99776717683156 0.0 0.0 3.3793393490549868e-15 17.598038351428663 -19.155434807590336 -21.439327890462618 -11.023294408002872 19.128841732893715 -25.02085311144221 80.77615243235417 -37.25328220884902 145.54646757762887 -6.3611093629270335e-15 -3.1805546814635168e-15 -3.1805546814635168e-15 8.716073901538495 -8.169654707161124 29.38171729222728 23.23277115959505 50.60704541417214 17.113461799384826 -70.90680335130801 -43.13583249785674 -81.97218483345719 1.5902773407317582e-15 3.310429723537619e-32 2.385416011097637e-15
133.89999389648438 1.5 58.70000076293945 5.957115887287465 5.434506358295733 -100.57528021891193 0.5730465794902314 4.708633956564803 0.26185249902744023 1.3002642125426637e-07 4.023742355122926e-07 -2.638294851576885 103.97449478609707 5.7317139607370144 -165.3205835861654 -2.040734489380304e-06 -1.0239605469570093e-06 53.46298864280454 2.1744815688249785e-06 -14.058916328133954 14.372851426598052 -1.5902773407317584e-15 1.1034765745125397e-32 -7.951386703658792e-16 -105.5374085568809 16.8347528460825 159.29155131999 3.1953807749396703e-06 -2.707638708883854e-06 -84.18829075483353 179.9999875252337 -80.40063379661312 149.9570907622999 -8.276074308844047e-33 -1.590277340731758e-15 -5.963540027744092e-16 16.129220142386817 -17.170989903307444 -25.423184889144853 -11.47183776845299 16.90599713906338 -20.194322777998664 80.96888677100334 -35.047786400867274 145.23927660974664 6.3611093629270335e-15 0.0 0.0 7.332731740555358 -14.04703927851264 25.44313345328987 27.522566427456013 57.116806627951455 18.396603584355624 -64.48276239042825 -35.85967925773555 -66.96725492282783 -1.5902773407317584e-15 -2.758691436281349e-33 1.987846675914698e-16
131.60000610351562 1.899999976158142 59.70000076293945 6.505641203010317 5.476196001946311 -102.83058434874097 1.2670215180896451 5.0351159683048 0.3169044771500627 7.052680532845782e-07 -1.361628085046123e-06 -3.129147741111931 104.74218017342803 1.324688573364106 -159.72435044125908 -1.225620915768558e-06 4.759443693157653e-07 56.06787651315451 -2.5228755129164076e-06 -18.855814581350373 16.31292722375303 1.5902773407317584e-15 -6.3611093629270335e-15 -5.963540027744093e-16 -105.04639226797735 19.163882693551837 154.89936050191926 1.1125723525412498e-06 8.736581237017565e-08 -85.29095782940372 179.99999758393236 -77.79567233179793 146.29900827616328 1.3793457181406746e-32 -1.5902773407317584e-15 9.93923337957349e-16 15.440849485519943 -15.455799866754333 -27.051792795898642 -11.685507642785828 16.15648685945582 -17.785699873678972 81.48119793511077 -34.21767975395802 144.25268494029905 0.0 0.0 1.5902773407317584e-15 6.447688326902028 -18.630391180525482 20.44080622954525 30.46408777216831 62.151507685719544 19.827522584211884 -69.44404690820205 -30.56440547490139 -70.16071742395086 0.0 0.0 8.547740706433203e-15
